HIERARCHY
ROOT hip
{
	OFFSET 0.000000 0.000000 0.000000 
	CHANNELS 6 Xposition Yposition Zposition Xrotation Zrotation Yrotation
	JOINT abdomen
	{
		OFFSET 0.000000 3.402643 0.000000 
		CHANNELS 3 Xrotation Zrotation Yrotation
		JOINT chest
		{
			OFFSET 0.000000 8.438565 -0.680529 
			CHANNELS 3 Xrotation Zrotation Yrotation
			JOINT neck
			{
				OFFSET 0.000000 10.207942 -0.272212 
				CHANNELS 3 Xrotation Zrotation Yrotation
				JOINT head
				{
					OFFSET 0.000000 3.130431 0.000000 
					CHANNELS 3 Xrotation Zrotation Yrotation
					End Site
					{
						OFFSET 0.000000 3.130435 0.000000 
					}
				}
			}
			JOINT lCollar
			{
				OFFSET 3.470700 6.669187 -0.816635 
				CHANNELS 3 Yrotation Zrotation Xrotation
				JOINT lShldr
				{
					OFFSET 3.198488 0.000000 0.000000 
					CHANNELS 3 Zrotation Yrotation Xrotation
					JOINT lForeArm
					{
						OFFSET 10.139888 0.000000 0.000000 
						CHANNELS 3 Yrotation Zrotation Xrotation
						JOINT lHand
						{
							OFFSET 8.370511 0.000000 0.000000 
							CHANNELS 3 Zrotation Yrotation Xrotation
							End Site
							{
								OFFSET 4.083176 0.000000 0.000000 
							}
						}
					}
				}
			}
			JOINT rCollar
			{
				OFFSET -3.470700 6.669187 -0.816635 
				CHANNELS 3 Yrotation Zrotation Xrotation
				JOINT rShldr
				{
					OFFSET -3.198488 0.000000 0.000000 
					CHANNELS 3 Zrotation Yrotation Xrotation
					JOINT rForeArm
					{
						OFFSET -10.139888 0.000000 0.000000 
						CHANNELS 3 Yrotation Zrotation Xrotation
						JOINT rHand
						{
							OFFSET -8.370511 0.000000 0.000000 
							CHANNELS 3 Zrotation Yrotation Xrotation
							End Site
							{
								OFFSET -4.083176 0.000000 0.000000 
							}
						}
					}
				}
			}
		}
	}
	JOINT lThigh
	{
		OFFSET 5.308129 -1.633274 1.361059 
		CHANNELS 3 Xrotation Zrotation Yrotation
		JOINT lShin
		{
			OFFSET -2.041588 -20.007561 0.000000 
			CHANNELS 3 Xrotation Zrotation Yrotation
			JOINT lFoot
			{
				OFFSET 0.000000 -19.190928 -1.224953 
				CHANNELS 3 Xrotation Yrotation Zrotation
				End Site
				{
					OFFSET 0.000000 -2.449906 4.627600 
				}
			}
		}
	}
	JOINT rThigh
	{
		OFFSET -5.308129 -1.633274 1.361059 
		CHANNELS 3 Xrotation Zrotation Yrotation
		JOINT rShin
		{
			OFFSET 2.041588 -20.007561 0.000000 
			CHANNELS 3 Xrotation Zrotation Yrotation
			JOINT rFoot
			{
				OFFSET 0.000000 -19.190928 -1.224953 
				CHANNELS 3 Xrotation Yrotation Zrotation
				End Site
				{
					OFFSET 0.000000 -2.449906 4.627600 
				}
			}
		}
	}
}
MOTION
Frames: 15
Frame Time: 0.033333
16.024397 48.868874 -15.882114 0.390645 0.585924 -9.527155 0.000000 0.000000 0.000000 5.224652 -0.233401 -0.480366 21.096066 5.301275 -5.597552 -20.826620 3.686978 -6.565063 -4.698783 -18.763571 3.818166 -53.337589 -3.551259 45.834084 -8.965520 4.520953 2.966399 -6.231165 -8.913857 -22.300865 2.641623 20.347155 3.803296 49.385479 -0.782948 48.314697 10.716812 -9.356361 5.672406 -1.554028 9.292321 -25.012344 -0.419561 2.982782 15.342814 20.417421 -2.666807 -2.030570 -20.645943 12.474995 -0.781388 -10.066232 -7.361978 4.984460 25.582903 1.333419 2.645066 -16.026932 -9.983749 5.152069 
15.927853 48.875751 -15.950899 -0.371104 0.419913 -8.166783 0.000000 0.000000 0.000000 5.966860 -0.262243 -1.345813 21.366566 5.818336 -6.288846 -21.209568 4.036844 -6.509097 -4.797435 -18.396030 4.605117 -53.614624 -4.292243 45.052116 -9.124602 4.527368 2.970842 -6.339791 -8.735795 -21.766817 2.138117 20.473467 4.573864 49.529095 -0.007672 48.702717 10.515202 -9.351858 5.635976 -1.829933 9.483450 -27.215918 0.224166 2.984367 13.776764 19.971609 -2.618353 -1.966095 -20.154369 12.667373 -0.803156 -8.783008 -7.476031 3.753300 25.084120 1.392184 2.563186 -15.834909 -10.117718 5.071204 
15.906393 48.877029 -15.978702 -0.332039 0.400384 -7.971070 0.000000 0.000000 0.000000 6.015684 -0.252508 -1.462199 21.338085 5.915307 -6.295788 -21.278410 4.114604 -6.439700 -4.716041 -18.325253 4.669429 -53.644745 -4.499356 45.111816 -9.217155 4.526881 2.984915 -6.325703 -8.625971 -21.420456 2.095371 20.541908 4.625980 49.491226 0.106270 48.558586 10.606121 -9.358123 5.656215 -1.603267 9.523085 -27.304075 0.107050 3.044551 13.647907 20.000793 -2.618392 -1.977656 -20.120102 12.597189 -0.814859 -8.805449 -7.448859 3.644332 25.073853 1.401966 2.564644 -15.811851 -10.202268 5.070086 
15.884977 48.878353 -16.006464 -0.292975 0.380854 -7.765621 0.000000 0.000000 0.000000 6.064508 -0.242774 -1.588334 21.307520 6.011248 -6.336255 -21.357059 4.192307 -6.380966 -4.664651 -18.247814 4.728959 -53.662971 -4.683836 45.155491 -9.326544 4.528388 2.987464 -6.310685 -8.522858 -21.084703 2.060251 20.601871 4.688664 49.452801 0.229872 48.413551 10.685942 -9.354312 5.662981 -1.395805 9.562452 -27.380611 -0.020036 3.090295 13.518263 20.061880 -2.599157 -1.988052 -20.064596 12.528255 -0.841108 -8.834503 -7.419420 3.574896 25.064577 1.406110 2.545536 -15.809378 -10.305802 5.036819 
15.889780 48.874035 -16.019243 -0.253913 0.419918 -7.706940 0.000000 0.000000 0.000000 6.054737 -0.233068 -1.587261 21.299156 5.951836 -6.340380 -21.356775 4.124039 -6.367682 -4.669484 -18.217852 4.718289 -53.754723 -4.754057 45.191387 -9.326544 4.528388 2.987464 -6.253169 -8.528198 -21.007008 2.118302 20.666330 4.677054 49.332947 0.186611 48.451977 10.695671 -9.355036 5.662914 -1.442340 9.553288 -27.349131 -0.117459 3.058681 13.509797 20.091400 -2.599236 -1.989887 -20.062773 12.511050 -0.851339 -8.932261 -7.429298 3.711584 25.161619 1.405999 2.570042 -15.843373 -10.516382 5.038932 
15.894628 48.869759 -16.032021 -0.205084 0.449216 -7.638327 0.000000 0.000000 0.000000 6.025429 -0.203945 -1.574296 21.271681 5.919200 -6.334976 -21.356495 4.055772 -6.364164 -4.703804 -18.110605 4.694490 -53.834137 -4.831982 45.217072 -9.317041 4.527388 2.988842 -6.196929 -8.529424 -20.907898 2.176097 20.767195 4.632185 49.212509 0.153077 48.489635 10.736264 -9.357808 5.672276 -1.490278 9.555561 -27.310030 -0.214965 3.045256 13.492884 20.160297 -2.599181 -1.994133 -20.084684 12.460442 -0.846267 -9.057315 -7.437780 3.858067 25.259491 1.396307 2.582894 -15.874309 -10.710878 5.062329 
15.900356 48.868347 -16.038322 -0.175787 0.468748 -7.511203 0.000000 0.000000 0.000000 6.025424 -0.194233 -1.592800 21.291653 5.849317 -6.311306 -21.336641 3.987582 -6.290929 -4.783010 -18.080307 4.701794 -53.888615 -4.833028 45.195206 -9.295349 4.534883 2.983425 -6.146466 -8.606737 -21.237226 2.131006 20.840837 4.628015 49.078114 0.081555 48.677414 10.736264 -9.357808 5.672276 -1.525021 9.600725 -27.512114 -0.283123 2.991192 13.325256 20.161201 -2.591749 -1.992972 -20.088078 12.471451 -0.826566 -9.080642 -7.459937 3.887284 25.278181 1.392139 2.612213 -15.896812 -10.892430 5.071622 
15.906084 48.866940 -16.044622 -0.146490 0.488280 -7.374296 0.000000 0.000000 0.000000 6.015647 -0.155390 -1.627730 21.290848 5.812106 -6.297411 -21.326624 3.929104 -6.228669 -4.877532 -18.020462 4.690406 -53.933399 -4.833453 45.172997 -9.226658 4.527875 2.983538 -6.094984 -8.693359 -21.569193 2.060331 20.930645 4.619093 48.924248 0.008902 48.866138 10.716812 -9.356361 5.672406 -1.567803 9.635295 -27.710470 -0.361162 2.962975 13.159363 20.182966 -2.571664 -2.000748 -20.052660 12.533296 -0.782949 -9.109050 -7.478848 3.936585 25.337315 1.382198 2.613243 -15.916839 -11.079853 5.088134 
15.906569 48.865223 -16.036163 -0.175787 0.449217 -7.179113 0.000000 0.000000 0.000000 6.044932 -0.106825 -1.583596 21.289301 5.803705 -6.174427 -21.355911 3.909484 -6.151546 -5.039408 -18.060118 4.710693 -53.822533 -4.711002 45.125114 -9.366722 4.532412 2.991482 -6.001005 -8.629627 -21.726900 1.843154 21.005898 4.632413 48.898151 -0.056212 48.931152 10.625575 -9.359571 5.656086 -1.314872 9.701202 -27.783806 -0.351407 2.982452 12.983524 20.202553 -2.572430 -2.002104 -20.075909 12.531642 -0.782050 -8.990355 -7.487504 3.751475 25.307867 1.391971 2.603988 -15.919871 -11.076669 5.099522 
15.907054 48.863503 -16.027658 -0.214849 0.400388 -6.983923 0.000000 0.000000 0.000000 6.064456 -0.058266 -1.549169 21.287354 5.803929 -6.048986 -21.385199 3.889863 -6.074404 -5.201626 -18.080584 4.736215 -53.709007 -4.596865 45.065773 -9.506781 4.537003 2.998644 -5.886441 -8.570568 -21.896643 1.612956 21.100330 4.654787 48.872616 -0.131056 48.996910 10.515202 -9.351858 5.635976 -1.073184 9.773465 -27.868359 -0.332042 2.993579 12.816091 20.213562 -2.559844 -2.010441 -20.054935 12.495098 -0.761379 -8.871940 -7.496344 3.576103 25.229816 1.396269 2.591074 -15.936307 -11.093307 5.112411 
15.911284 48.862576 -16.006508 -0.332038 0.371088 -6.759964 0.000000 0.000000 0.000000 6.132813 0.009710 -1.483332 21.287189 5.686365 -5.939567 -21.482613 3.772457 -5.996611 -5.325672 -18.142643 4.806392 -53.610428 -4.515138 44.942417 -9.677504 4.544699 3.011198 -5.804844 -8.393600 -21.470434 1.478698 21.100298 4.736405 49.012928 -0.297088 48.652870 10.354184 -9.350143 5.610474 -0.760584 9.749986 -27.528996 -0.185594 2.995395 12.682987 20.193886 -2.559813 -2.009227 -20.042339 12.415793 -0.742647 -8.615614 -7.523630 3.362982 25.132298 1.405968 2.568506 -15.934724 -11.102273 5.129178 
15.915560 48.861652 -15.985401 -0.468758 0.332020 -6.526155 0.000000 0.000000 0.000000 6.210941 0.058250 -1.419432 21.268145 5.597266 -5.821659 -21.570227 3.655100 -5.927562 -5.432045 -18.173748 4.880121 -53.521572 -4.433980 44.818634 -9.850383 4.552505 3.034046 -5.722347 -8.225927 -21.048365 1.355014 21.120934 4.817328 49.172356 -0.452622 48.307281 10.194851 -9.348318 5.592988 -0.457250 9.725374 -27.189342 -0.059044 2.998104 12.540878 20.125050 -2.559499 -2.004966 -20.051220 12.292887 -0.736954 -8.342822 -7.562949 3.139770 25.034628 1.411529 2.554807 -15.934365 -11.084042 5.150470 
15.910668 48.859051 -15.962486 -0.517586 0.312487 -6.360244 0.000000 0.000000 0.000000 6.230473 0.067956 -1.408585 21.259703 5.468555 -5.837060 -21.599051 3.518481 -5.912042 -5.359090 -18.237242 4.902287 -53.428268 -4.430511 44.843216 -9.862049 4.553544 3.042197 -5.588515 -8.256443 -20.775949 1.428860 21.021776 4.832916 49.479214 -0.635592 47.762684 10.093877 -9.350838 5.576666 -0.371617 9.566875 -26.440626 0.019033 3.036365 12.520920 20.134869 -2.559683 -2.005580 -20.082424 12.147872 -0.742606 -8.230857 -7.547573 3.188864 25.014715 1.411703 2.563540 -15.964307 -11.317256 5.151947 
15.905777 48.856449 -15.939575 -0.566414 0.292954 -6.184536 0.000000 0.000000 0.000000 6.298839 0.106773 -1.374915 21.293058 5.343104 -5.827682 -21.637596 3.362332 -5.886091 -5.240442 -18.263166 4.978384 -53.335747 -4.417389 44.868279 -9.900061 4.557595 3.036710 -5.453764 -8.291084 -20.526310 1.500677 20.965702 4.912653 49.785709 -0.829816 47.209743 10.002957 -9.344585 5.558027 -0.284057 9.412146 -25.671463 0.077824 3.038874 12.508991 20.165535 -2.550071 -2.005892 -20.090475 12.003275 -0.749863 -8.085561 -7.538763 3.238822 24.975620 1.411672 2.561492 -15.997937 -11.513693 5.149997 
15.887226 48.852398 -15.912651 -0.537114 0.244130 -5.988616 0.000000 0.000000 0.000000 6.289080 0.135896 -1.420547 21.456730 5.296604 -5.866693 -21.461205 3.275204 -5.871088 -5.209810 -18.277937 4.964097 -53.279793 -4.336322 44.960648 -9.881055 4.555569 3.039453 -5.530416 -8.292989 -20.585224 1.461364 20.931225 4.904664 49.934078 -0.843983 47.525455 9.841927 -9.342908 5.530880 -0.224967 9.424286 -25.844378 0.048345 3.116784 12.466444 20.243879 -2.550225 -2.020472 -20.163572 11.841321 -0.772844 -8.014516 -7.507235 3.082300 24.975620 1.411667 2.561491 -16.082777 -11.569253 5.134966 
